<?xml version="1.0" encoding="UTF-8" standalone="no"?>
<!DOCTYPE svg PUBLIC "-//W3C//DTD SVG 1.0//EN" "http://www.w3.org/TR/2001/PR-SVG-20010719/DTD/svg10.dtd">
<!--
Copyright (c) 2016
@author Oliver Merkel, Merkel(dot)Oliver(at)web(dot)de.
All rights reserved.

This graphics is licensed under a
http://creativecommons.org/licenses/by-nc-sa/4.0
Creative Commons Attribution-NonCommercial-ShareAlike 4.0 International License.

The specific declaration and naming of the states is used as published in
* Guillaume Maurice Jean-Bernard Chaslot, "Monte-Carlo Tree Search", PHD Proefschrift, Universiteit Maastricht, NL, 2010

Chaslot used these in earlier publications dating back to 2006, too.

-->
<svg version="1.1"
  xmlns:dc="http://purl.org/dc/elements/1.1/"
  xmlns:cc="http://creativecommons.org/ns#"
  xmlns:rdf="http://www.w3.org/1999/02/22-rdf-syntax-ns#"
  xmlns="http://www.w3.org/2000/svg"
  xmlns:xlink="http://www.w3.org/1999/xlink"
  width="100%" height="100%"
  viewBox="32 125 1075 410">
  <title
     id="titleMctsStateSelection">Details on MCTS state Selection</title>
  <metadata
     id="metadata7">
    <rdf:RDF>
      <cc:Work
         rdf:about="">
        <dc:format>image/svg+xml</dc:format>
        <dc:type
           rdf:resource="http://purl.org/dc/dcmitype/StillImage" />
        <dc:title>Details on MCTS state Selection</dc:title>
        <dc:date>2016-06-16</dc:date>
        <dc:creator>
          <cc:Agent>
            <dc:title>Oliver Merkel, Merkel(dot)Oliver (at)web(dot) de</dc:title>
          </cc:Agent>
        </dc:creator>
        <dc:rights>
          <cc:Agent>
            <dc:title>Oliver Merkel, Merkel(dot)Oliver (at)web(dot) de</dc:title>
          </cc:Agent>
        </dc:rights>
        <dc:publisher>
          <cc:Agent>
            <dc:title>Oliver Merkel, Merkel(dot)Oliver (at)web(dot) de</dc:title>
          </cc:Agent>
        </dc:publisher>
        <dc:language>en-GB</dc:language>
        <cc:license
           rdf:resource="http://creativecommons.org/licenses/by-nc-sa/4.0/" />
      </cc:Work>
      <cc:License
         rdf:about="http://creativecommons.org/licenses/by-nc-sa/4.0/">
        <cc:permits
           rdf:resource="http://creativecommons.org/ns#Reproduction" />
        <cc:permits
           rdf:resource="http://creativecommons.org/ns#Distribution" />
        <cc:requires
           rdf:resource="http://creativecommons.org/ns#Notice" />
        <cc:requires
           rdf:resource="http://creativecommons.org/ns#Attribution" />
        <cc:prohibits
           rdf:resource="http://creativecommons.org/ns#CommercialUse" />
        <cc:permits
           rdf:resource="http://creativecommons.org/ns#DerivativeWorks" />
        <cc:requires
           rdf:resource="http://creativecommons.org/ns#ShareAlike" />
      </cc:License>
    </rdf:RDF>
  </metadata>
  <g>
    <rect style="fill: #ffffff" x="568" y="337" width="80" height="36" rx="10" ry="10"/>
    <rect style="fill: none; fill-opacity:0; stroke-width: 2; stroke: #000000" x="568" y="337" width="80" height="36" rx="10" ry="10"/>
    <text font-size="12.8" style="fill: #000000;text-anchor:middle;font-family:sans-serif;font-style:normal;font-weight:normal" x="608" y="359.8">
      <tspan x="608" y="359.8">Expansion</tspan>
    </text>
  </g>
  <g>
    <rect style="fill: #ffffff" x="692" y="337" width="80" height="36" rx="10" ry="10"/>
    <rect style="fill: none; fill-opacity:0; stroke-width: 2; stroke: #000000" x="692" y="337" width="80" height="36" rx="10" ry="10"/>
    <text font-size="12.8" style="fill: #000000;text-anchor:middle;font-family:sans-serif;font-style:normal;font-weight:normal" x="732" y="359.8">
      <tspan x="732" y="359.8">Simulation</tspan>
    </text>
  </g>
  <g>
    <rect style="fill: #ffffff" x="813" y="337" width="114.15" height="36" rx="10" ry="10"/>
    <rect style="fill: none; fill-opacity:0; stroke-width: 2; stroke: #000000" x="813" y="337" width="114.15" height="36" rx="10" ry="10"/>
    <text font-size="12.8" style="fill: #000000;text-anchor:middle;font-family:sans-serif;font-style:normal;font-weight:normal" x="870.075" y="359.8">
      <tspan x="870.075" y="359.8">Backpropagation</tspan>
    </text>
  </g>
  <ellipse style="fill: #000000" cx="44" cy="355" rx="10" ry="10"/>
  <g>
    <ellipse style="fill: #ffffff" cx="1081" cy="355" rx="15" ry="15"/>
    <ellipse style="fill: none; fill-opacity:0; stroke-width: 2; stroke: #000000" cx="1081" cy="355" rx="15" ry="15"/>
    <ellipse style="fill: #000000" cx="1081" cy="355" rx="10" ry="10"/>
  </g>
  <g>
    <polyline style="fill: none; fill-opacity:0; stroke-width: 2; stroke: #000000" points="870.075,337 870.075,169 309.225,169 309.225,188.528 "/>
    <polyline style="fill: none; fill-opacity:0; stroke-width: 2; stroke: #000000" points="304.225,180.764 309.225,190.764 314.225,180.764 "/>
  </g>
  <g>
    <polyline style="fill: none; fill-opacity:0; stroke-width: 2; stroke: #000000" points="512.225,355 547,355 547,355 563.528,355 "/>
    <polyline style="fill: none; fill-opacity:0; stroke-width: 2; stroke: #000000" points="555.764,360 565.764,355 555.764,350 "/>
  </g>
  <g>
    <polyline style="fill: none; fill-opacity:0; stroke-width: 2; stroke: #000000" points="648,355 658,355 682,355 687.528,355 "/>
    <polyline style="fill: none; fill-opacity:0; stroke-width: 2; stroke: #000000" points="679.764,360 689.764,355 679.764,350 "/>
  </g>
  <g>
    <polyline style="fill: none; fill-opacity:0; stroke-width: 2; stroke: #000000" points="772,355 782,355 803,355 808.528,355 "/>
    <polyline style="fill: none; fill-opacity:0; stroke-width: 2; stroke: #000000" points="800.764,360 810.764,355 800.764,350 "/>
  </g>
  <g>
    <polyline style="fill: none; fill-opacity:0; stroke-width: 2; stroke: #000000" points="54,355 64,355 96.225,355 101.753,355 "/>
    <polyline style="fill: none; fill-opacity:0; stroke-width: 2; stroke: #000000" points="93.9889,360 103.989,355 93.9889,350 "/>
  </g>
  <g>
    <polyline style="fill: none; fill-opacity:0; stroke-width: 2; stroke: #000000" points="927.15,355 996.576,355 996.576,355 1061.53,355 "/>
    <polyline style="fill: none; fill-opacity:0; stroke-width: 2; stroke: #000000" points="1053.76,360 1063.76,355 1053.76,350 "/>
    <text font-size="12.7998" style="fill: #000000;text-anchor:middle;font-family:sans-serif;font-style:normal;font-weight:normal" x="1008" y="329">[#iterations &gt; MAXITERATIONS]</text>
  </g>
  <g>
    <rect style="fill: #ffffff" x="216.175" y="243" width="127.15" height="36" rx="10" ry="10"/>
    <rect style="fill: none; fill-opacity:0; stroke-width: 2; stroke: #000000" x="216.175" y="243" width="127.15" height="36" rx="10" ry="10"/>
    <text font-size="12.7998" style="fill: #000000;text-anchor:middle;font-family:sans-serif;font-style:normal;font-weight:normal" x="279.75" y="265.8">
      <tspan x="279.75" y="265.8">Point to Root Node</tspan>
    </text>
  </g>
  <ellipse style="fill: #000000" cx="166" cy="261" rx="10" ry="10"/>
  <g>
    <polyline style="fill: none; fill-opacity:0; stroke-width: 2; stroke: #000000" points="176,261 186,261 206.175,261 211.703,261 "/>
    <polyline style="fill: none; fill-opacity:0; stroke-width: 2; stroke: #000000" points="203.939,266 213.939,261 203.939,256 "/>
  </g>
  <g>
    <rect style="fill: #ffffff" x="150" y="363" width="259.5" height="36" rx="10" ry="10"/>
    <rect style="fill: none; fill-opacity:0; stroke-width: 2; stroke: #000000" x="150" y="363" width="259.5" height="36" rx="10" ry="10"/>
    <text font-size="12.7998" style="fill: #000000;text-anchor:middle;font-family:sans-serif;font-style:normal;font-weight:normal" x="279.75" y="385.8">
      <tspan x="279.75" y="385.8">Point to child node in explored search tree</tspan>
    </text>
  </g>
  <g>
    <polyline style="fill: none; fill-opacity:0; stroke-width: 2; stroke: #000000" points="279.75,279 279.75,328.5 279.75,328.5 279.75,358.528 "/>
    <polyline style="fill: none; fill-opacity:0; stroke-width: 2; stroke: #000000" points="274.75,350.764 279.75,360.764 284.75,350.764 "/>
    <text font-size="12.7998" style="fill: #000000;text-anchor:middle;font-family:sans-serif;font-style:normal;font-weight:normal" x="386.225" y="318">[ has child node ]/select child node</text>
  </g>
  <text font-size="12.7998" style="fill: #000000;text-anchor:start;font-family:sans-serif;font-style:normal;font-weight:normal" x="279.75" y="381">
    <tspan x="279.75" y="381"></tspan>
  </text>
  <g>
    <polyline style="fill: none; fill-opacity:0; stroke-width: 2; stroke: #000000" points="409.5,381 437.225,381 437.225,328 279.75,328 279.75,358.528 "/>
    <polyline style="fill: none; fill-opacity:0; stroke-width: 2; stroke: #000000" points="274.75,350.764 279.75,360.764 284.75,350.764 "/>
  </g>
  <g>
    <ellipse style="fill: #ffffff" cx="279.75" cy="472" rx="15" ry="15"/>
    <ellipse style="fill: none; fill-opacity:0; stroke-width: 2; stroke: #000000" cx="279.75" cy="472" rx="15" ry="15"/>
    <ellipse style="fill: #000000" cx="279.75" cy="472" rx="10" ry="10"/>
  </g>
  <g>
    <polyline style="fill: none; fill-opacity:0; stroke-width: 2; stroke: #000000" points="279.75,399 279.75,409 279.75,447 279.75,452.528 "/>
    <polyline style="fill: none; fill-opacity:0; stroke-width: 2; stroke: #000000" points="274.75,444.764 279.75,454.764 284.75,444.764 "/>
    <text font-size="12.7998" style="fill: #000000;text-anchor:middle;font-family:sans-serif;font-style:normal;font-weight:normal" x="307.827" y="431">[ else ]</text>
  </g>
  <text font-size="12.7998" style="fill: #000000;text-anchor:middle;font-family:sans-serif;font-style:normal;font-weight:normal" x="308.225" y="213">
    <tspan x="308.225" y="213">Selection</tspan>
  </text>
  <rect style="fill: none; fill-opacity:0; stroke-width: 2; stroke: #000000" x="106.225" y="193" width="406" height="324"/>
  <line style="fill: none; fill-opacity:0; stroke-width: 1.5; stroke: #000000" x1="106.225" y1="223" x2="512.225" y2="223"/>
  <g>
    <polygon style="fill: #ffffff" points="551.827,191 788.827,191 800.827,203 800.827,305 551.827,305 "/>
    <polygon style="fill: none; fill-opacity:0; stroke-width: 2; stroke: #000000" points="551.827,191 788.827,191 800.827,203 800.827,305 551.827,305 "/>
    <polyline style="fill: none; fill-opacity:0; stroke-width: 1; stroke: #000000" points="788.827,191 788.827,203 800.827,203 "/>
    <text font-size="12.7998" style="fill: #000000;text-anchor:start;font-family:monospace;font-style:normal;font-weight:normal" x="558.827" y="214.65">
      <tspan x="558.827" y="214.65">The 'select child node' will</tspan>
      <tspan x="558.827" y="230.65">contain a Selection Strategy,</tspan>
      <tspan x="558.827" y="246.65">e.g. a selection by</tspan>
      <tspan x="558.827" y="262.65">Upper Confidence Bounds (UCB).</tspan>
      <tspan x="558.827" y="278.65">It shall balance between</tspan>
      <tspan x="558.827" y="294.65">exploitation and exploration.</tspan>
    </text>
  </g>
  <polyline style="fill: none; fill-opacity:0; stroke-width: 2; stroke-dasharray: 4; stroke: #000000" points="551.827,248 433.827,248 433.827,301 433.827,301 "/>
  <g>
    <polygon style="fill: #ffffff" points="549.827,388 863.827,388 875.827,400 875.827,534 549.827,534 "/>
    <polygon style="fill: none; fill-opacity:0; stroke-width: 2; stroke: #000000" points="549.827,388 863.827,388 875.827,400 875.827,534 549.827,534 "/>
    <polyline style="fill: none; fill-opacity:0; stroke-width: 1; stroke: #000000" points="863.827,388 863.827,400 875.827,400 "/>
    <text font-size="12.7998" style="fill: #000000;text-anchor:start;font-family:monospace;font-style:normal;font-weight:normal" x="556.827" y="411.65">
      <tspan x="556.827" y="411.65">The resulting position traversed in the</tspan>
      <tspan x="556.827" y="427.65">search tree is unexplored here. Another</tspan>
      <tspan x="556.827" y="443.65">option to implement might be as follows:</tspan>
      <tspan x="556.827" y="459.65">If both explored and unexplored children</tspan>
      <tspan x="556.827" y="475.65">exist then favor any unexplored child</tspan>
      <tspan x="556.827" y="491.65">over explored ones. This ensures that</tspan>
      <tspan x="556.827" y="507.65">all children close to the root node get</tspan>
      <tspan x="556.827" y="523.65">explored early (in fact ASAP).</tspan>
    </text>
  </g>
  <polyline style="fill: none; fill-opacity:0; stroke-width: 2; stroke-dasharray: 4; stroke: #000000" points="549.827,461 444.413,461 444.413,426 339,426 "/>
</svg>
